<?xml version="1.0" standalone="no"?>
<!DOCTYPE svg PUBLIC "-//W3C//DTD SVG 20010904//EN"
 "http://www.w3.org/TR/2001/REC-SVG-20010904/DTD/svg10.dtd">
<svg version="1.0" xmlns="http://www.w3.org/2000/svg"
 width="260.000000pt" height="260.000000pt" viewBox="0 0 260.000000 260.000000"
 preserveAspectRatio="xMidYMid meet">
<metadata>
Created by potrace 1.11, written by Peter Selinger 2001-2013
</metadata>
<g transform="translate(0.000000,260.000000) scale(0.100000,-0.100000)"
fill="#000000" stroke="none">
<path d="M1246 2402 c-74 -17 -136 -89 -223 -260 -79 -153 -224 -342 -330
-429 l-46 -38 -257 -5 c-274 -5 -280 -7 -333 -62 -46 -47 -47 -59 -47 -585 0
-486 0 -498 21 -541 13 -26 38 -54 62 -70 l40 -27 281 -6 281 -5 200 -67 c241
-81 368 -109 490 -109 105 0 167 13 241 49 125 61 213 201 214 339 0 22 4 44
9 50 46 48 81 167 81 275 0 32 4 60 9 63 10 6 33 84 40 136 1 3 70 6 154 7
114 1 164 6 202 18 99 34 178 107 224 205 21 46 26 70 26 145 0 82 -3 97 -32
155 -53 107 -156 189 -263 208 -25 4 -170 7 -323 7 l-279 -1 7 30 c14 67 16
82 19 135 3 67 -17 163 -44 205 -70 111 -191 176 -339 181 -36 1 -75 0 -85 -3z
m166 -198 c109 -43 144 -139 99 -274 -14 -43 -27 -69 -84 -170 -13 -25 -28
-55 -32 -67 l-6 -22 445 -3 444 -3 43 -30 c92 -65 109 -174 42 -264 -48 -63
-73 -68 -356 -69 -138 0 -253 -1 -254 -1 -1 -1 8 -22 19 -48 36 -80 21 -191
-32 -248 -18 -19 -18 -25 -6 -65 21 -76 4 -149 -49 -209 -29 -33 -32 -41 -30
-96 4 -111 -33 -182 -120 -228 -33 -17 -59 -21 -140 -21 -55 0 -113 2 -130 6
-16 4 -43 10 -60 13 -16 3 -124 37 -240 75 -201 66 -260 80 -356 84 l-44 2 -1
450 c0 247 1 454 3 459 2 6 21 11 42 12 97 4 170 43 266 145 143 150 225 259
296 395 29 54 65 119 81 146 28 44 32 47 74 47 24 0 63 -7 86 -16z m-1082
-1469 c18 -9 33 -28 41 -52 33 -100 -98 -162 -158 -74 -33 48 -14 109 42 132
29 12 43 11 75 -6z"/>
</g>
</svg>
