<svg id="logo" data-name="logo" xmlns="http://www.w3.org/2000/svg" viewBox="0 0 495.55 202.7"><defs><style>.cls-1{fill:#FFDD00;}.cls-2{fill:#333;}</style></defs><title>logo</title><circle class="cls-1" cx="123.58" cy="126.91" r="28.75"/><circle class="cls-1" cx="466.79" cy="126.93" r="28.75"/><path class="cls-2" d="M90.75,126.61l-13.63,2.67L72.7,106.74l-7.1,24.07-9,1.75L40.84,113l4.41,22.54L31.61,138.2,21.26,85.34,33.42,83l23.82,28.72,11-35.54L80.4,73.76Z" transform="translate(-21.26 -27.9)"/><path class="cls-2" d="M153.34,114.36l-15,2.94L133,109.61l-20.26,4-2,9.12-15,2.94L108.29,68.3,119.9,66ZM115.2,102.24l11.16-2.19-8.12-11.73Z" transform="translate(-21.26 -27.9)"/><path class="cls-2" d="M203.52,104.53l-11.65,2.28L166.45,83l5.42,27.7-13.64,2.67L147.88,60.54l11.59-2.26L185,82.18l-5.45-27.83,13.63-2.68Z" transform="translate(-21.26 -27.9)"/><path class="cls-2" d="M248.92,40.76l6,30.38q2.14,11-2.83,18.31T236.11,99q-11,2.16-18.45-2.77T208.1,80.3l-5.95-30.38,13.63-2.67,5.91,30.17q2.24,11.37,12.05,9.45t7.52-13.29l-5.9-30.17Z" transform="translate(-21.26 -27.9)"/><path class="cls-2" d="M295,44.29,274,48.4l1.55,7.91,17.94-3.51,2.32,11.8-17.95,3.51,1.76,9L300.64,73,303,85l-34.69,6.8L258,39l34.63-6.79Z" transform="translate(-21.26 -27.9)"/><path class="cls-2" d="M322.55,68.67l21-4.11,2.37,12.08-34.62,6.78L300.92,30.57l13.64-2.67Z" transform="translate(-21.26 -27.9)"/><path class="cls-2" d="M175.42,121.39l24.17-4.74q8.06-1.58,13.74,2.19t7.31,12q1.61,8.2-2.24,13.83t-11.91,7.21L196,154l3.44,17.6-13.63,2.67Zm16,9.41L193.61,142l8.84-1.73a5.41,5.41,0,0,0,3.66-2.26,6.52,6.52,0,0,0-1.6-8.19,5.45,5.45,0,0,0-4.25-.71Z" transform="translate(-21.26 -27.9)"/><path class="cls-2" d="M223.33,112l24.16-4.73q8.06-1.58,13.75,2.19t7.31,12q1.6,8.19-2.25,13.83t-11.9,7.21l-10.53,2.06,3.45,17.59-13.64,2.68Zm16,9.42,2.19,11.16,8.83-1.73a5.47,5.47,0,0,0,3.67-2.26,6.53,6.53,0,0,0-1.61-8.2,5.43,5.43,0,0,0-4.24-.7Z" transform="translate(-21.26 -27.9)"/><path class="cls-2" d="M308.22,107.92l-21,4.11,1.55,7.92,17.94-3.52,2.32,11.8-17.95,3.52,1.76,9,21.05-4.12,2.37,12.08-34.69,6.79-10.36-52.85,34.63-6.78Z" transform="translate(-21.26 -27.9)"/><path class="cls-2" d="M335.82,132.31l21-4.11,2.37,12.08-34.62,6.78L314.19,94.21l13.64-2.67Z" transform="translate(-21.26 -27.9)"/><path class="cls-2" d="M225.84,177.75l22.4-4.39Q260,171,268.89,176.73t11.23,17.83q2.38,12.15-3.68,20.74t-17.85,10.91l-22.4,4.39Zm15.93,9.06,5.76,29.39,8.9-1.74q6.22-1.23,8.93-5.57t1.26-11.69c-.95-4.9-2.82-8.35-5.58-10.35s-6.22-2.6-10.37-1.79Z" transform="translate(-21.26 -27.9)"/><path class="cls-2" d="M319.71,171.91l-21,4.11,1.55,7.91,18-3.51,2.31,11.8-17.95,3.51,1.76,9,21.05-4.13,2.37,12.09-34.69,6.79-10.35-52.85,34.62-6.78Z" transform="translate(-21.26 -27.9)"/><path class="cls-2" d="M347.3,196.29l21-4.11,2.37,12.09L336,211.05l-10.35-52.86,13.63-2.67Z" transform="translate(-21.26 -27.9)"/><path class="cls-2" d="M422,194.21l-12.82-15.86-5.83,1.14,3.46,17.69-13.63,2.67L382.84,147l23.88-4.68q8.05-1.57,13.74,2.15t7.3,12q2.12,10.82-4.93,16.81l14.59,17.91Zm-21-26.78,8.62-1.68a5.35,5.35,0,0,0,3.66-2.26,6.56,6.56,0,0,0-1.57-8.06,5.34,5.34,0,0,0-4.25-.71l-8.62,1.69Z" transform="translate(-21.26 -27.9)"/><path class="cls-2" d="M457.7,187.22l-13.64,2.67L433.71,137l13.63-2.68Z" transform="translate(-21.26 -27.9)"/></svg>